<svg width="32" height="32" viewBox="0 0 32 32" fill="none" xmlns="http://www.w3.org/2000/svg">
<g clip-path="url(#clip0_28_57)">
<path d="M15.982 31.4371C24.5175 31.4371 31.437 24.5177 31.437 15.9821C31.437 7.44654 24.5175 0.5271 15.982 0.5271C7.44642 0.5271 0.526978 7.44654 0.526978 15.9821C0.526978 24.5177 7.44642 31.4371 15.982 31.4371Z" fill="#DCF4DB"/>
<path d="M15.982 31.7883C7.26647 31.7883 0.175781 24.6977 0.175781 15.9821C0.175781 7.26653 7.26647 0.175842 15.982 0.175842C24.6976 0.175842 31.7883 7.26653 31.7883 15.9821C31.7883 24.6977 24.6976 31.7883 15.982 31.7883ZM15.982 0.878342C7.65389 0.878342 0.878281 7.65395 0.878281 15.9821C0.878281 24.3102 7.65389 31.0858 15.982 31.0858C24.3102 31.0858 31.0858 24.3102 31.0858 15.9821C31.0858 7.65395 24.3102 0.878342 15.982 0.878342Z" fill="black"/>
<path d="M20.7071 8.54754C21.0043 8.54754 21.2452 8.30662 21.2452 8.00943C21.2452 7.71224 21.0043 7.47131 20.7071 7.47131C20.4099 7.47131 20.1689 7.71224 20.1689 8.00943C20.1689 8.30662 20.4099 8.54754 20.7071 8.54754Z" fill="black"/>
<path d="M23.8051 11.649C24.1023 11.649 24.3432 11.4081 24.3432 11.1109C24.3432 10.8137 24.1023 10.5728 23.8051 10.5728C23.5079 10.5728 23.267 10.8137 23.267 11.1109C23.267 11.4081 23.5079 11.649 23.8051 11.649Z" fill="black"/>
<path d="M20.8946 11.9125C20.8268 11.9125 20.7579 11.8928 20.6972 11.8517C20.537 11.7425 20.4952 11.524 20.6041 11.3638L23.3245 7.36239C23.4338 7.20222 23.6519 7.16042 23.8128 7.26931C23.9729 7.37855 24.0147 7.59703 23.9058 7.7572L21.1854 11.7586C21.1176 11.8584 21.0073 11.9125 20.8946 11.9125Z" fill="black"/>
<path d="M8.7673 11.9999C8.57341 11.9999 8.41605 11.8426 8.41605 11.6487V8.16676L7.82876 8.5988C7.6721 8.71365 7.45257 8.67993 7.33771 8.52398C7.22285 8.36767 7.25622 8.14779 7.41253 8.03293L8.55936 7.18958C8.66649 7.11125 8.80769 7.09966 8.92606 7.15902C9.04443 7.21873 9.1189 7.34027 9.1189 7.47269V11.6491C9.11855 11.8426 8.96119 11.9999 8.7673 11.9999Z" fill="black"/>
<path d="M12.2222 12C11.3139 12 10.5748 11.2609 10.5748 10.3526V8.76846C10.5748 7.86012 11.3139 7.12109 12.2222 7.12109C13.1305 7.12109 13.8696 7.86012 13.8696 8.76846V10.3526C13.8696 11.2609 13.1305 12 12.2222 12ZM12.2222 7.82359C11.7013 7.82359 11.2773 8.24755 11.2773 8.76846V10.3526C11.2773 10.8735 11.7013 11.2975 12.2222 11.2975C12.7431 11.2975 13.1671 10.8735 13.1671 10.3526V8.76846C13.1671 8.2472 12.7434 7.82359 12.2222 7.82359Z" fill="black"/>
<path d="M16.8015 12C15.8932 12 15.1542 11.2609 15.1542 10.3526V8.76846C15.1542 7.86012 15.8932 7.12109 16.8015 7.12109C17.7099 7.12109 18.4485 7.86012 18.4485 8.76846V10.3526C18.4485 11.2609 17.7099 12 16.8015 12ZM16.8015 7.82359C16.2806 7.82359 15.8567 8.24755 15.8567 8.76846V10.3526C15.8567 10.8735 16.2806 11.2975 16.8015 11.2975C17.3224 11.2975 17.746 10.8735 17.746 10.3526V8.76846C17.746 8.2472 17.3224 7.82359 16.8015 7.82359Z" fill="black"/>
<path d="M5.14489 18.0896H4.47927C3.8681 18.0896 3.37073 17.5922 3.37073 16.981V14.9831C3.37073 14.3719 3.8681 13.8746 4.47927 13.8746H5.14489C5.75607 13.8746 6.25344 14.3719 6.25344 14.9831V16.981C6.25344 17.5922 5.75607 18.0896 5.14489 18.0896ZM4.47927 14.5771C4.25518 14.5771 4.07323 14.7594 4.07323 14.9831V16.981C4.07323 17.2051 4.25553 17.3871 4.47927 17.3871H5.14489C5.36899 17.3871 5.55094 17.2048 5.55094 16.981V14.9831C5.55094 14.759 5.36864 14.5771 5.14489 14.5771H4.47927Z" fill="black"/>
<path d="M9.05049 16.3333H7.84148C7.64759 16.3333 7.49023 16.176 7.49023 15.9821V14.2258C7.49023 14.0319 7.64759 13.8746 7.84148 13.8746H9.05049C9.61424 13.8746 10.0733 14.3333 10.0733 14.8974V15.3105C10.0733 15.8746 9.61459 16.3333 9.05049 16.3333ZM8.19273 15.6308H9.05049C9.22681 15.6308 9.37083 15.4872 9.37083 15.3105V14.8974C9.37083 14.7207 9.22717 14.5771 9.05049 14.5771H8.19273V15.6308Z" fill="black"/>
<path d="M9.72208 18.0896C9.52819 18.0896 9.37083 17.9326 9.37083 17.7384V16.6537C9.37083 16.477 9.22717 16.3334 9.05049 16.3334H8.19273V17.7384C8.19273 17.9326 8.03537 18.0896 7.84148 18.0896C7.64759 18.0896 7.49023 17.9326 7.49023 17.7384V15.9821C7.49023 15.7882 7.64759 15.6309 7.84148 15.6309H9.05049C9.61424 15.6309 10.0733 16.0896 10.0733 16.6537V17.7384C10.0733 17.9326 9.91597 18.0896 9.72208 18.0896Z" fill="black"/>
<path d="M13.0839 18.0896H12.4182C11.8071 18.0896 11.3097 17.5922 11.3097 16.981V14.9831C11.3097 14.3719 11.8071 13.8746 12.4182 13.8746H13.2746C13.4685 13.8746 13.6258 14.0319 13.6258 14.2258C13.6258 14.4197 13.4685 14.5771 13.2746 14.5771H12.4182C12.1941 14.5771 12.0122 14.7594 12.0122 14.9831V16.981C12.0122 17.2051 12.1945 17.3871 12.4182 17.3871H13.0839C13.308 17.3871 13.4899 17.2048 13.4899 16.981V16.3333H13.1021C12.9082 16.3333 12.7509 16.176 12.7509 15.9821C12.7509 15.7882 12.9082 15.6308 13.1021 15.6308H13.8412C14.035 15.6308 14.1924 15.7882 14.1924 15.9821V16.981C14.1924 17.5922 13.695 18.0896 13.0839 18.0896Z" fill="black"/>
<path d="M17.8106 18.0896C17.6164 18.0896 17.4594 17.9326 17.4594 17.7383V14.9831C17.4594 14.759 17.2771 14.5771 17.0533 14.5771H16.3877C16.1636 14.5771 15.9817 14.7594 15.9817 14.9831V17.7383C15.9817 17.9326 15.8243 18.0896 15.6304 18.0896C15.4365 18.0896 15.2792 17.9326 15.2792 17.7383V14.9831C15.2792 14.3719 15.7765 13.8746 16.3877 13.8746H17.0533C17.6645 13.8746 18.1619 14.3719 18.1619 14.9831V17.7383C18.1619 17.9326 18.0049 18.0896 17.8106 18.0896Z" fill="black"/>
<path d="M17.8106 16.3334H15.6304C15.4365 16.3334 15.2792 16.176 15.2792 15.9821C15.2792 15.7882 15.4365 15.6309 15.6304 15.6309H17.8106C18.0049 15.6309 18.1619 15.7882 18.1619 15.9821C18.1619 16.176 18.0049 16.3334 17.8106 16.3334Z" fill="black"/>
<path d="M21.7801 18.0896C21.6607 18.0896 21.5469 18.0285 21.4816 17.9235L19.9512 15.4577V17.7384C19.9512 17.9326 19.7941 18.0896 19.5999 18.0896C19.4057 18.0896 19.2487 17.9326 19.2487 17.7384V14.2259C19.2487 14.0689 19.3526 13.9312 19.5037 13.888C19.6547 13.8444 19.8159 13.9073 19.8985 14.0408L21.4289 16.5069V14.2259C21.4289 14.032 21.5859 13.8746 21.7801 13.8746C21.9744 13.8746 22.1314 14.032 22.1314 14.2259V17.7384C22.1314 17.895 22.0274 18.0331 21.8764 18.0763C21.8444 18.085 21.8121 18.0896 21.7801 18.0896Z" fill="black"/>
<path d="M24.0685 18.0896C23.8743 18.0896 23.7173 17.9326 23.7173 17.7383V14.2258C23.7173 14.0319 23.8743 13.8746 24.0685 13.8746C24.2628 13.8746 24.4198 14.0319 24.4198 14.2258V17.7383C24.4198 17.9326 24.2628 18.0896 24.0685 18.0896Z" fill="black"/>
<path d="M27.4847 18.0896H26.8188C26.2076 18.0896 25.7106 17.5922 25.7106 16.981V14.9831C25.7106 14.3719 26.2076 13.8746 26.8188 13.8746H27.4847C28.0959 13.8746 28.5929 14.3719 28.5929 14.9831C28.5929 15.177 28.4359 15.3344 28.2417 15.3344C28.0474 15.3344 27.8904 15.177 27.8904 14.9831C27.8904 14.759 27.7081 14.5771 27.4847 14.5771H26.8188C26.595 14.5771 26.4131 14.7594 26.4131 14.9831V16.981C26.4131 17.2051 26.5954 17.3871 26.8188 17.3871H27.4847C27.7085 17.3871 27.8904 17.2048 27.8904 16.981C27.8904 16.7868 28.0474 16.6298 28.2417 16.6298C28.4359 16.6298 28.5929 16.7868 28.5929 16.981C28.5929 17.5922 28.0959 18.0896 27.4847 18.0896Z" fill="black"/>
<path d="M14.1731 27.9664C15.0108 28.7125 16.1327 29.1399 17.3386 29.07C21.1401 28.8498 23.2923 26.017 25.5185 22.6162C25.5462 22.5733 25.5473 22.5182 25.5202 22.475C25.4935 22.4314 25.4437 22.4075 25.3931 22.4138C23.3302 22.659 22.1858 22.0524 20.974 21.4103C19.8641 20.822 18.7158 20.2136 16.8324 20.3225C14.4207 20.4623 12.5721 22.5378 12.7119 24.9499C12.7814 26.1554 13.3354 27.2203 14.1731 27.9664Z" fill="#7ADD78"/>
<path d="M17.08 29.4286C15.9209 29.4286 14.8148 29.0082 13.9395 28.2288C12.9946 27.3872 12.4337 26.2298 12.3606 24.9695C12.2876 23.7096 12.7112 22.495 13.5528 21.5501C14.3944 20.6052 15.5517 20.0443 16.812 19.9716C18.791 19.856 19.9852 20.4886 21.138 21.0995C22.3509 21.7419 23.399 22.2965 25.3513 22.0647C25.5381 22.0408 25.7211 22.1307 25.8195 22.2912C25.9168 22.4468 25.9147 22.6509 25.8121 22.8083C23.5328 26.2906 21.3238 29.1916 17.3586 29.4209C17.2655 29.4258 17.1728 29.4286 17.08 29.4286ZM14.4067 27.704C15.2117 28.4209 16.2437 28.7806 17.3185 28.7195C20.8166 28.5168 22.8879 25.9523 24.974 22.8041C23.0846 22.9245 21.928 22.313 20.8103 21.7201C19.6926 21.1283 18.6389 20.5722 16.8528 20.6727C15.7801 20.7349 14.7944 21.2122 14.0775 22.0173C13.3606 22.8223 13.0003 23.8561 13.0624 24.9291C13.1242 26.0015 13.6019 26.9875 14.4067 27.704Z" fill="black"/>
<path d="M14.7091 25.7528C11.3044 25.7528 8.43787 24.3552 6.15229 21.5708C6.029 21.4208 6.05078 21.1992 6.20111 21.0766C6.3511 20.953 6.57273 20.9754 6.69532 21.1251C9.77508 24.8768 13.8064 25.934 19.0203 24.3573C19.2047 24.3007 19.4018 24.4061 19.458 24.5919C19.5142 24.7774 19.4092 24.9734 19.2234 25.0296C17.6287 25.5118 16.1222 25.7528 14.7091 25.7528Z" fill="black"/>
</g>
<defs>
<clipPath id="clip0_28_57">
<rect width="32" height="32" fill="white"/>
</clipPath>
</defs>
</svg>
