<svg width="32" height="32" viewBox="0 0 32 32" fill="none" xmlns="http://www.w3.org/2000/svg">
<g clip-path="url(#clip0_30_174)">
<path d="M15.982 31.4371C24.5175 31.4371 31.437 24.5177 31.437 15.9821C31.437 7.44654 24.5175 0.5271 15.982 0.5271C7.44642 0.5271 0.526978 7.44654 0.526978 15.9821C0.526978 24.5177 7.44642 31.4371 15.982 31.4371Z" fill="#DCF4DB"/>
<path d="M15.982 31.7883C7.26647 31.7883 0.175781 24.6977 0.175781 15.9821C0.175781 7.26653 7.26647 0.175842 15.982 0.175842C24.6976 0.175842 31.7883 7.26653 31.7883 15.9821C31.7883 24.6977 24.6976 31.7883 15.982 31.7883ZM15.982 0.878342C7.65389 0.878342 0.878281 7.65395 0.878281 15.9821C0.878281 24.3102 7.65389 31.0858 15.982 31.0858C24.3102 31.0858 31.0858 24.3102 31.0858 15.9821C31.0858 7.65395 24.3102 0.878342 15.982 0.878342Z" fill="black"/>
<path d="M9.58855 10.577C9.39466 10.577 9.2373 10.4197 9.2373 10.2258V6.41613C9.2373 6.22224 9.39466 6.06488 9.58855 6.06488C9.78244 6.06488 9.9398 6.22224 9.9398 6.41613V10.2258C9.9398 10.4197 9.78244 10.577 9.58855 10.577Z" fill="black"/>
<path d="M11.8987 8.67186H9.58855C9.39466 8.67186 9.2373 8.5145 9.2373 8.32061C9.2373 8.12672 9.39466 7.96936 9.58855 7.96936H11.8987C12.0926 7.96936 12.25 8.12672 12.25 8.32061C12.25 8.5145 12.0926 8.67186 11.8987 8.67186Z" fill="black"/>
<path d="M11.8987 10.577C11.7048 10.577 11.5475 10.4197 11.5475 10.2258V6.41613C11.5475 6.22224 11.7048 6.06488 11.8987 6.06488C12.0926 6.06488 12.25 6.22224 12.25 6.41613V10.2258C12.25 10.4197 12.0926 10.577 11.8987 10.577Z" fill="black"/>
<path d="M13.961 10.577C13.7671 10.577 13.6097 10.4197 13.6097 10.2258V6.41613C13.6097 6.22224 13.7671 6.06488 13.961 6.06488C14.1549 6.06488 14.3122 6.22224 14.3122 6.41613V10.2258C14.3122 10.4197 14.1549 10.577 13.961 10.577Z" fill="black"/>
<path d="M17.3091 10.5771H16.5869C15.9403 10.5771 15.4144 10.0509 15.4144 9.40458V7.23772C15.4144 6.59107 15.9406 6.06525 16.5869 6.06525H17.516C17.7102 6.06525 17.8672 6.22261 17.8672 6.4165C17.8672 6.61039 17.7102 6.76775 17.516 6.76775H16.5869C16.3277 6.76775 16.1169 6.97885 16.1169 7.23772V9.40458C16.1169 9.6638 16.328 9.87455 16.5869 9.87455H17.3091C17.5679 9.87455 17.779 9.66345 17.779 9.40458V8.67222H16.948C16.7537 8.67222 16.5967 8.51486 16.5967 8.32097C16.5967 8.12708 16.7537 7.96972 16.948 7.96972H18.1303C18.3245 7.96972 18.4815 8.12708 18.4815 8.32097V9.40458C18.4815 10.0509 17.9557 10.5771 17.3091 10.5771Z" fill="black"/>
<path d="M20.0654 10.577C19.8711 10.577 19.7141 10.4197 19.7141 10.2258V6.41613C19.7141 6.22224 19.8711 6.06488 20.0654 6.06488C20.2596 6.06488 20.4166 6.22224 20.4166 6.41613V10.2258C20.4166 10.4197 20.2596 10.577 20.0654 10.577Z" fill="black"/>
<path d="M22.3755 8.67186H20.0654C19.8711 8.67186 19.7141 8.5145 19.7141 8.32061C19.7141 8.12672 19.8711 7.96936 20.0654 7.96936H22.3755C22.5698 7.96936 22.7268 8.12672 22.7268 8.32061C22.7268 8.5145 22.5698 8.67186 22.3755 8.67186Z" fill="black"/>
<path d="M22.3755 10.577C22.1813 10.577 22.0243 10.4197 22.0243 10.2258V6.41613C22.0243 6.22224 22.1813 6.06488 22.3755 6.06488C22.5698 6.06488 22.7268 6.22224 22.7268 6.41613V10.2258C22.7268 10.4197 22.5698 10.577 22.3755 10.577Z" fill="black"/>
<path d="M5.26123 16.7678H4.53942C3.89276 16.7678 3.36694 16.2416 3.36694 15.595V13.4281C3.36694 12.7815 3.89312 12.2553 4.53942 12.2553H5.26123C5.90789 12.2553 6.43371 12.7815 6.43371 13.4281V15.595C6.43371 16.2416 5.90789 16.7678 5.26123 16.7678ZM4.53942 12.9582C4.28019 12.9582 4.06944 13.1693 4.06944 13.4285V15.5953C4.06944 15.8546 4.28054 16.0657 4.53942 16.0657H5.26123C5.52046 16.0657 5.73121 15.8546 5.73121 15.5953V13.4285C5.73121 13.1693 5.52011 12.9582 5.26123 12.9582H4.53942Z" fill="black"/>
<path d="M9.48877 16.7678H8.76695C8.1203 16.7678 7.59448 16.2416 7.59448 15.595V12.6066C7.59448 12.4127 7.75184 12.2553 7.94573 12.2553C8.13962 12.2553 8.29698 12.4127 8.29698 12.6066V15.595C8.29698 15.8542 8.50808 16.0653 8.76695 16.0653H9.48877C9.748 16.0653 9.95875 15.8542 9.95875 15.595V12.6066C9.95875 12.4127 10.1161 12.2553 10.31 12.2553C10.5039 12.2553 10.6612 12.4127 10.6612 12.6066V15.595C10.6616 16.2416 10.1354 16.7678 9.48877 16.7678Z" fill="black"/>
<path d="M14.5167 16.7678C14.3228 16.7678 14.1654 16.6108 14.1654 16.4166V13.4281C14.1654 13.1689 13.9543 12.9578 13.6954 12.9578H12.9736C12.7144 12.9578 12.5036 13.1689 12.5036 13.4281V16.4166C12.5036 16.6108 12.3463 16.7678 12.1524 16.7678C11.9585 16.7678 11.8011 16.6108 11.8011 16.4166V13.4281C11.8011 12.7815 12.3273 12.2553 12.9736 12.2553H13.6954C14.3421 12.2553 14.8679 12.7815 14.8679 13.4281V16.4166C14.8679 16.6108 14.7106 16.7678 14.5167 16.7678Z" fill="black"/>
<path d="M14.5166 14.863H12.152C11.9581 14.863 11.8008 14.7057 11.8008 14.5118C11.8008 14.3179 11.9581 14.1605 12.152 14.1605H14.5166C14.7105 14.1605 14.8679 14.3179 14.8679 14.5118C14.8679 14.7057 14.7105 14.863 14.5166 14.863Z" fill="black"/>
<path d="M18.0713 16.7678H16.3825C16.1886 16.7678 16.0312 16.6108 16.0312 16.4166V12.6069C16.0312 12.413 16.1886 12.2557 16.3825 12.2557C16.5767 12.2557 16.7337 12.413 16.7337 12.6069V16.0657H18.0717C18.2659 16.0657 18.4229 16.223 18.4229 16.4169C18.4226 16.6108 18.2656 16.7678 18.0713 16.7678Z" fill="black"/>
<path d="M20.0042 16.7678C19.81 16.7678 19.653 16.6108 19.653 16.4166V12.6069C19.653 12.413 19.81 12.2557 20.0042 12.2557C20.1984 12.2557 20.3555 12.413 20.3555 12.6069V16.4169C20.3555 16.6108 20.1984 16.7678 20.0042 16.7678Z" fill="black"/>
<path d="M24.0699 12.9582H21.6663C21.4721 12.9582 21.3151 12.8008 21.3151 12.6069C21.3151 12.413 21.4721 12.2557 21.6663 12.2557H24.0699C24.2642 12.2557 24.4212 12.413 24.4212 12.6069C24.4212 12.8008 24.2642 12.9582 24.0699 12.9582Z" fill="black"/>
<path d="M22.8683 16.7678C22.6741 16.7678 22.5171 16.6108 22.5171 16.4166V12.6069C22.5171 12.413 22.6741 12.2557 22.8683 12.2557C23.0626 12.2557 23.2196 12.413 23.2196 12.6069V16.4169C23.2196 16.6108 23.0626 16.7678 22.8683 16.7678Z" fill="black"/>
<path d="M26.8645 16.7678C26.6703 16.7678 26.5133 16.6108 26.5133 16.4166V14.5841L25.2014 12.8163C25.0858 12.6603 25.1185 12.4404 25.2741 12.3249C25.4293 12.2093 25.6495 12.242 25.7651 12.3976L27.1466 14.2585C27.1915 14.3189 27.2158 14.3923 27.2158 14.4679V16.4166C27.2158 16.6108 27.0588 16.7678 26.8645 16.7678Z" fill="black"/>
<path d="M26.8642 14.8191C26.7914 14.8191 26.718 14.7967 26.6552 14.7499C26.4996 14.6344 26.4669 14.4141 26.5825 14.2585L27.9643 12.3976C28.0802 12.2424 28.3001 12.2093 28.4553 12.3249C28.6109 12.4405 28.6436 12.6607 28.528 12.8163L27.1462 14.6772C27.0777 14.77 26.9716 14.8191 26.8642 14.8191Z" fill="black"/>
<path d="M5.80947 16.556C5.70234 16.556 5.59661 16.5069 5.52742 16.4145L4.61838 15.195C4.50247 15.0394 4.53443 14.8195 4.69004 14.7036C4.84564 14.5873 5.06588 14.6196 5.18144 14.7752L6.09047 15.9948C6.20639 16.1504 6.17442 16.3706 6.01882 16.4865C5.95594 16.5329 5.88253 16.556 5.80947 16.556Z" fill="black"/>
<path d="M16.3318 19.8494L17.3269 21.8655C17.3838 21.9808 17.4938 22.0605 17.6209 22.0791L19.8458 22.4023C20.1657 22.4486 20.2936 22.842 20.0621 23.0679L18.4523 24.6373C18.3603 24.7268 18.3185 24.8561 18.3399 24.9829L18.72 27.1986C18.7748 27.5175 18.44 27.7606 18.1538 27.6099L16.1639 26.5639C16.0501 26.5042 15.9146 26.5042 15.8008 26.5639L13.8109 27.6099C13.5247 27.7606 13.1899 27.5172 13.2447 27.1986L13.6248 24.9829C13.6465 24.8564 13.6044 24.7272 13.5124 24.6373L11.9026 23.0679C11.6708 22.842 11.7986 22.4486 12.119 22.4023L14.3438 22.0791C14.4709 22.0605 14.5809 21.9808 14.6378 21.8655L15.6329 19.8494C15.7751 19.5592 16.1889 19.5592 16.3318 19.8494Z" fill="#FDBC4B"/>
<path d="M13.628 28.0068C13.4748 28.0068 13.3231 27.9587 13.1931 27.8645C12.9631 27.6973 12.8496 27.4195 12.8977 27.1392L13.2778 24.9235C13.2802 24.9105 13.276 24.8975 13.2662 24.888L11.6568 23.3193C11.4527 23.1209 11.381 22.829 11.4692 22.5589C11.557 22.2881 11.7867 22.0952 12.0681 22.0545L14.2925 21.731C14.3055 21.7289 14.3164 21.7212 14.3221 21.7092L15.3168 19.6934C15.4429 19.4384 15.6975 19.28 15.9821 19.28C16.2666 19.28 16.5212 19.4384 16.6473 19.693V19.6934L17.6421 21.7096C17.648 21.7208 17.6586 21.7289 17.6716 21.731L19.8964 22.0545C20.1777 22.0949 20.4071 22.2884 20.4949 22.5589C20.5831 22.8293 20.5111 23.1209 20.3074 23.3193L18.6976 24.8884C18.6884 24.8972 18.6842 24.9105 18.6863 24.9239L19.0664 27.1392C19.1145 27.4198 19.0011 27.6977 18.771 27.8645C18.5416 28.0321 18.242 28.0528 17.9902 27.9207L16.0003 26.8743C15.9891 26.8687 15.9757 26.8684 15.9638 26.8747L13.974 27.9207C13.8644 27.9783 13.746 28.0068 13.628 28.0068ZM15.9821 19.9832C15.9578 19.9832 15.9504 19.9979 15.9469 20.0053L14.9522 22.0211C14.844 22.24 14.6354 22.3917 14.3937 22.4265L12.1689 22.75C12.1608 22.7514 12.1447 22.7535 12.1373 22.7763C12.1299 22.7995 12.1415 22.8114 12.1471 22.8167L13.7569 24.3857C13.9318 24.5564 14.0115 24.802 13.9701 25.0422L13.59 27.2579C13.5886 27.2653 13.5858 27.2818 13.6055 27.2962C13.6255 27.3106 13.6396 27.3029 13.6466 27.2994L15.6368 26.253C15.8528 26.1392 16.1106 26.1395 16.3266 26.2526L18.3172 27.299C18.3238 27.3025 18.3386 27.3095 18.3579 27.2958C18.3779 27.2814 18.3751 27.2653 18.3737 27.2576L17.9937 25.0419C17.9526 24.8009 18.032 24.5557 18.2062 24.3857L19.8163 22.8164C19.8223 22.8107 19.8339 22.7991 19.8261 22.776C19.8188 22.7531 19.803 22.751 19.7949 22.7496L17.5701 22.4261C17.3284 22.391 17.1198 22.2396 17.0116 22.0211L16.0165 20.0049C16.0137 19.9979 16.0063 19.9832 15.9821 19.9832Z" fill="black"/>
<path d="M24.502 18.2206L25.2568 19.7503C25.3 19.8378 25.3833 19.8982 25.4799 19.9122L27.168 20.1574C27.4107 20.1925 27.508 20.4911 27.332 20.6625L26.1107 21.8532C26.0408 21.9214 26.0092 22.0194 26.0257 22.1153L26.3141 23.7963C26.3555 24.0383 26.1016 24.2228 25.8845 24.1086L24.3748 23.3148C24.2884 23.2695 24.1855 23.2695 24.0991 23.3148L22.5894 24.1086C22.3723 24.2228 22.1184 24.0383 22.1598 23.7963L22.4482 22.1153C22.4647 22.0194 22.4328 21.921 22.3632 21.8532L21.1419 20.6625C20.9663 20.4911 21.0632 20.1925 21.306 20.1574L22.9941 19.9122C23.0907 19.8982 23.1739 19.8378 23.2171 19.7503L23.9719 18.2206C24.0794 18.0004 24.3934 18.0004 24.502 18.2206Z" fill="#FDBC4B"/>
<path d="M22.4507 24.4943C22.3169 24.4943 22.1841 24.4525 22.0706 24.3699C21.8697 24.2238 21.7707 23.9815 21.8132 23.7366L22.0966 22.084L20.896 20.9136C20.7183 20.7405 20.6554 20.4862 20.732 20.2498C20.8089 20.0137 21.0088 19.8451 21.2547 19.8093L22.914 19.568L23.6562 18.0647C23.7661 17.842 23.9885 17.7039 24.2364 17.7039C24.4844 17.7039 24.7071 17.8423 24.8167 18.0647L25.5589 19.568L27.2182 19.8093C27.4641 19.8451 27.6643 20.0137 27.7409 20.2498C27.8174 20.4862 27.7546 20.7401 27.5768 20.9136L26.3763 22.084L26.6597 23.7366C26.7019 23.9811 26.6032 24.2238 26.4022 24.3699C26.2017 24.5157 25.9411 24.535 25.7205 24.4191L24.2364 23.6393L22.7524 24.4195C22.6569 24.4697 22.5536 24.4943 22.4507 24.4943ZM21.4658 20.489L22.6077 21.6017C22.7601 21.7507 22.8297 21.9646 22.7935 22.1746L22.5237 23.7458L23.9347 23.0043C24.124 22.9045 24.3492 22.9052 24.5371 23.0039L25.9488 23.7458L25.679 22.1746C25.6428 21.9646 25.7127 21.7507 25.8648 21.6017L27.0067 20.489L25.4293 20.2596C25.2182 20.2291 25.0362 20.0966 24.9417 19.9059L24.2361 18.4763L23.5304 19.9056C23.4359 20.0966 23.254 20.2291 23.0432 20.2596L21.4658 20.489Z" fill="black"/>
<path d="M7.99319 18.2206L8.74802 19.7503C8.79123 19.8378 8.87448 19.8982 8.97107 19.9122L10.6592 20.1574C10.9019 20.1925 10.9992 20.4911 10.8232 20.6625L9.60191 21.8532C9.53201 21.9214 9.5004 22.0194 9.51691 22.1153L9.80529 23.7963C9.84674 24.0383 9.59278 24.2228 9.37571 24.1086L7.86604 23.3148C7.77963 23.2695 7.67671 23.2695 7.5903 23.3148L6.08063 24.1086C5.86356 24.2228 5.60961 24.0383 5.65105 23.7963L5.93943 22.1153C5.95594 22.0194 5.92397 21.921 5.85443 21.8532L4.63313 20.6625C4.45751 20.4911 4.55445 20.1925 4.79716 20.1574L6.48527 19.9122C6.58187 19.8982 6.66511 19.8378 6.70832 19.7503L7.46315 18.2206C7.57063 18.0004 7.88465 18.0004 7.99319 18.2206Z" fill="#FDBC4B"/>
<path d="M9.51347 24.4943C9.41055 24.4943 9.30729 24.4697 9.21175 24.4191L7.72772 23.6394L6.24368 24.4195C6.02415 24.5354 5.76247 24.5161 5.56191 24.3703C5.36099 24.2242 5.26229 23.9818 5.30444 23.737L5.5879 22.0844L4.38698 20.914C4.20924 20.7405 4.14672 20.4858 4.22329 20.2498C4.30022 20.0141 4.50043 19.8455 4.7456 19.8097L6.40526 19.5684L7.14745 18.065C7.25704 17.8423 7.47938 17.7043 7.72772 17.7043C7.97605 17.7043 8.19839 17.8427 8.30833 18.065L9.05017 19.5684L10.7095 19.8097C10.955 19.8455 11.1552 20.0141 11.2321 20.2498C11.3087 20.4858 11.2462 20.7401 11.0688 20.914L9.86788 22.0844L10.1513 23.737C10.1931 23.9815 10.0944 24.2242 9.89387 24.3703C9.78007 24.4525 9.6473 24.4943 9.51347 24.4943ZM4.95706 20.489L6.09862 21.6018C6.25106 21.7503 6.32096 21.9642 6.28478 22.1746L6.01537 23.7458L7.42634 23.0043C7.61496 22.9049 7.84012 22.9052 8.02839 23.0039L9.43936 23.7458L9.16995 22.1746C9.13377 21.9642 9.20367 21.7503 9.35646 21.6014L10.498 20.489L8.92056 20.2596C8.70911 20.2291 8.52681 20.0963 8.43267 19.9052L7.72772 18.4763L7.02205 19.9056C6.92827 20.0963 6.74597 20.2291 6.53487 20.2596L4.95706 20.489Z" fill="black"/>
</g>
<defs>
<clipPath id="clip0_30_174">
<rect width="32" height="32" fill="white"/>
</clipPath>
</defs>
</svg>
