<svg width="32" height="32" viewBox="0 0 32 32" fill="none" xmlns="http://www.w3.org/2000/svg">
<g clip-path="url(#clip0_28_148)">
<path d="M15.9821 31.4371C24.5177 31.4371 31.4371 24.5177 31.4371 15.9821C31.4371 7.44654 24.5177 0.5271 15.9821 0.5271C7.44654 0.5271 0.5271 7.44654 0.5271 15.9821C0.5271 24.5177 7.44654 31.4371 15.9821 31.4371Z" fill="#DCF4DB"/>
<path d="M15.982 31.7883C7.26647 31.7883 0.175781 24.6977 0.175781 15.9821C0.175781 7.26653 7.26647 0.175842 15.982 0.175842C24.6976 0.175842 31.7883 7.26653 31.7883 15.9821C31.7883 24.6977 24.6976 31.7883 15.982 31.7883ZM15.982 0.878342C7.65389 0.878342 0.878281 7.65395 0.878281 15.9821C0.878281 24.3102 7.65389 31.0858 15.982 31.0858C24.3102 31.0858 31.0858 24.3102 31.0858 15.9821C31.0858 7.65395 24.3102 0.878342 15.982 0.878342Z" fill="black"/>
<path d="M15.982 26.8709C9.9781 26.8709 5.09326 21.9864 5.09326 15.9821C5.09326 15.7882 5.25062 15.6309 5.44451 15.6309C5.6384 15.6309 5.79576 15.7882 5.79576 15.9821C5.79576 21.5986 10.3652 26.1684 15.982 26.1684C18.1742 26.1684 20.2623 25.4831 22.0207 24.1859C22.1767 24.071 22.3965 24.1041 22.5117 24.26C22.627 24.416 22.5936 24.6359 22.4376 24.7511C20.5574 26.1378 18.3252 26.8709 15.982 26.8709Z" fill="black"/>
<path d="M23.2073 26.0173L20.8469 23.2038L23.4321 23.4321L23.2073 26.0173Z" fill="black"/>
<path d="M26.5196 16.3333C26.3253 16.3333 26.1683 16.176 26.1683 15.9821C26.1683 10.3652 21.5985 5.79582 15.9821 5.79582C13.7773 5.79582 11.6789 6.48884 9.91456 7.79935C9.75861 7.91491 9.53872 7.88225 9.42316 7.72664C9.30725 7.57104 9.33992 7.35081 9.49587 7.23524C11.3821 5.83411 13.6252 5.09332 15.9821 5.09332C21.9863 5.09332 26.8708 9.97816 26.8708 15.9821C26.8708 16.176 26.7138 16.3333 26.5196 16.3333Z" fill="black"/>
<path d="M8.74976 6.00659L11.0575 8.74985L8.53198 8.53208L8.74976 6.00659Z" fill="black"/>
<path d="M15.9819 22.3046C19.4737 22.3046 22.3044 19.4739 22.3044 15.9821C22.3044 12.4903 19.4737 9.65961 15.9819 9.65961C12.4901 9.65961 9.65942 12.4903 9.65942 15.9821C9.65942 19.4739 12.4901 22.3046 15.9819 22.3046Z" fill="#FDBC4B"/>
<path d="M18.2361 19.1704C18.1325 19.1704 18.0299 19.1247 17.9607 19.0376L15.7071 16.2006C15.6579 16.1384 15.6309 16.0615 15.6309 15.9821V12.3411C15.6309 12.1472 15.7882 11.9898 15.9821 11.9898C16.176 11.9898 16.3334 12.1472 16.3334 12.3411V15.8595L18.5108 18.6007C18.6316 18.7528 18.6059 18.9737 18.4542 19.0942C18.3896 19.1455 18.3127 19.1704 18.2361 19.1704Z" fill="black"/>
<path d="M15.9821 22.6558C12.3021 22.6558 9.30835 19.6621 9.30835 15.9821C9.30835 12.3021 12.3021 9.30835 15.9821 9.30835C19.6621 9.30835 22.6558 12.3021 22.6558 15.9821C22.6558 19.6621 19.6621 22.6558 15.9821 22.6558ZM15.9821 10.0108C12.6895 10.0108 10.0108 12.6895 10.0108 15.9821C10.0108 19.2747 12.6895 21.9533 15.9821 21.9533C19.2747 21.9533 21.9533 19.2747 21.9533 15.9821C21.9533 12.6895 19.2747 10.0108 15.9821 10.0108Z" fill="black"/>
</g>
<defs>
<clipPath id="clip0_28_148">
<rect width="32" height="32" fill="white"/>
</clipPath>
</defs>
</svg>
