<svg width="40" height="40" viewBox="0 0 40 40" fill="none" xmlns="http://www.w3.org/2000/svg">
<path d="M7.19995 3.19995C5.00034 3.19995 3.19995 5.00034 3.19995 7.19995V32.7999C3.19995 34.9996 5.00034 36.7999 7.19995 36.7999H20.6656C20.752 36.8142 20.8401 36.8142 20.9265 36.7999H25.4656C25.552 36.8142 25.6401 36.8142 25.7265 36.7999H32.8C34.9996 36.7999 36.8 34.9996 36.8 32.7999V7.19995C36.8 5.00034 34.9996 3.19995 32.8 3.19995H7.19995ZM7.19995 4.79995H32.8C34.1347 4.79995 35.2 5.86516 35.2 7.19995V32.7999C35.2 34.1347 34.1347 35.1999 32.8 35.1999H26.4V23.9999H29.4562L30.5765 18.4H26.4V16.8C26.4 16.354 26.4424 16.3191 26.5921 16.2218C26.7419 16.1246 27.2046 16 28 16H30.4V11.4953L29.9437 11.2781C29.9437 11.2781 28.1061 10.4 25.6 10.4C23.8 10.4 22.3212 11.1171 21.375 12.3C20.4287 13.4828 20 15.0666 20 16.8V18.4H17.6V23.9999H20V35.1999H7.19995C5.86516 35.1999 4.79995 34.1347 4.79995 32.7999V7.19995C4.79995 5.86516 5.86516 4.79995 7.19995 4.79995ZM25.6 12C27.2632 12 28.3098 12.3667 28.8 12.5609V14.4H28C27.0793 14.4 26.3415 14.4761 25.7203 14.8796C25.099 15.2832 24.8 16.0491 24.8 16.8V20H28.6234L28.1437 22.4H24.8V35.1999H21.6V22.4H19.2V20H21.6V16.8C21.6 15.3333 21.9712 14.1171 22.625 13.3C23.2787 12.4828 24.2 12 25.6 12Z" fill="#EDFFF3"/>
</svg>
