<svg width="40" height="40" viewBox="0 0 40 40" fill="none" xmlns="http://www.w3.org/2000/svg">
<path d="M12.7999 2.40002C7.06589 2.40002 2.3999 7.06601 2.3999 12.8V27.2C2.3999 32.934 7.06589 37.6 12.7999 37.6H27.1999C32.9339 37.6 37.5999 32.934 37.5999 27.2V12.8C37.5999 7.06601 32.9339 2.40002 27.1999 2.40002H12.7999ZM12.7999 4.00002H27.1999C32.0691 4.00002 35.9999 7.93084 35.9999 12.8V27.2C35.9999 32.0692 32.0691 36 27.1999 36H12.7999C7.93072 36 3.9999 32.0692 3.9999 27.2V12.8C3.9999 7.93084 7.93072 4.00002 12.7999 4.00002ZM29.5999 8.80002C29.1756 8.80002 28.7686 8.9686 28.4685 9.26865C28.1685 9.56871 27.9999 9.97568 27.9999 10.4C27.9999 10.8244 28.1685 11.2313 28.4685 11.5314C28.7686 11.8315 29.1756 12 29.5999 12C30.0242 12 30.4312 11.8315 30.7313 11.5314C31.0313 11.2313 31.1999 10.8244 31.1999 10.4C31.1999 9.97568 31.0313 9.56871 30.7313 9.26865C30.4312 8.9686 30.0242 8.80002 29.5999 8.80002ZM19.9999 11.2C15.1493 11.2 11.1999 15.1494 11.1999 20C11.1999 24.8507 15.1493 28.8 19.9999 28.8C24.8505 28.8 28.7999 24.8507 28.7999 20C28.7999 15.1494 24.8505 11.2 19.9999 11.2ZM19.9999 12.8C23.9858 12.8 27.1999 16.0141 27.1999 20C27.1999 23.986 23.9858 27.2 19.9999 27.2C16.014 27.2 12.7999 23.986 12.7999 20C12.7999 16.0141 16.014 12.8 19.9999 12.8Z" fill="#EDFFF3"/>
</svg>
