<svg width="32" height="32" viewBox="0 0 32 32" fill="none" xmlns="http://www.w3.org/2000/svg">
<g clip-path="url(#clip0_30_273)">
<path d="M15.982 31.4371C24.5175 31.4371 31.437 24.5177 31.437 15.9821C31.437 7.44654 24.5175 0.5271 15.982 0.5271C7.44642 0.5271 0.526978 7.44654 0.526978 15.9821C0.526978 24.5177 7.44642 31.4371 15.982 31.4371Z" fill="#DCF4DB"/>
<path d="M15.982 31.7883C7.26647 31.7883 0.175781 24.6977 0.175781 15.9821C0.175781 7.26653 7.26647 0.175842 15.982 0.175842C24.6976 0.175842 31.7883 7.26653 31.7883 15.9821C31.7883 24.6977 24.6976 31.7883 15.982 31.7883ZM15.982 0.878342C7.65389 0.878342 0.878281 7.65395 0.878281 15.9821C0.878281 24.3102 7.65389 31.0858 15.982 31.0858C24.3102 31.0858 31.0858 24.3102 31.0858 15.9821C31.0858 7.65395 24.3102 0.878342 15.982 0.878342Z" fill="black"/>
<path d="M21.0245 18.6727H20.138C19.3881 18.6727 18.778 18.0625 18.778 17.3126V14.6515C18.778 13.9016 19.3881 13.2915 20.138 13.2915H21.0245C21.7745 13.2915 22.3846 13.9016 22.3846 14.6515V17.3126C22.3849 18.0625 21.7745 18.6727 21.0245 18.6727ZM20.138 13.994C19.7755 13.994 19.4805 14.2891 19.4805 14.6515V17.3126C19.4805 17.6751 19.7755 17.9702 20.138 17.9702H21.0245C21.387 17.9702 21.6821 17.6751 21.6821 17.3126V14.6515C21.6821 14.2891 21.387 13.994 21.0245 13.994H20.138Z" fill="black"/>
<path d="M16.1531 18.6727H15.2665C14.5166 18.6727 13.9065 18.0625 13.9065 17.3126V14.6515C13.9065 13.9016 14.5166 13.2915 15.2665 13.2915H16.1531C16.903 13.2915 17.5131 13.9016 17.5131 14.6515C17.5131 14.8454 17.3561 15.0028 17.1619 15.0028C16.9676 15.0028 16.8106 14.8454 16.8106 14.6515C16.8106 14.2891 16.5156 13.994 16.1531 13.994H15.2665C14.904 13.994 14.609 14.2891 14.609 14.6515V17.3126C14.609 17.6751 14.904 17.9702 15.2665 17.9702H16.1531C16.5156 17.9702 16.8106 17.6751 16.8106 17.3126C16.8106 17.1184 16.9676 16.9614 17.1619 16.9614C17.3561 16.9614 17.5131 17.1184 17.5131 17.3126C17.5128 18.0625 16.903 18.6727 16.1531 18.6727Z" fill="black"/>
<path d="M12.2974 18.6727H9.93072C9.73683 18.6727 9.57947 18.5156 9.57947 18.3214V13.6428C9.57947 13.4489 9.73683 13.2915 9.93072 13.2915H12.2974C12.4913 13.2915 12.6487 13.4489 12.6487 13.6428C12.6487 13.8366 12.4913 13.994 12.2974 13.994H10.282V17.9702H12.2974C12.4913 17.9702 12.6487 18.1272 12.6487 18.3214C12.6487 18.5156 12.4913 18.6727 12.2974 18.6727Z" fill="black"/>
<path d="M11.5798 16.3334H9.93072C9.73683 16.3334 9.57947 16.176 9.57947 15.9821C9.57947 15.7882 9.73683 15.6309 9.93072 15.6309H11.5798C11.7737 15.6309 11.9311 15.7882 11.9311 15.9821C11.9311 16.176 11.7737 16.3334 11.5798 16.3334Z" fill="black"/>
<path d="M17.2237 28.4993C17.909 28.8906 18.7433 29.0209 19.5627 28.7971C22.1465 28.0915 23.2143 25.8284 24.2505 23.1638C24.2635 23.1304 24.2561 23.0921 24.2312 23.0665C24.2062 23.0405 24.1687 23.0314 24.1346 23.0429C22.751 23.5122 21.875 23.2618 20.9477 22.9966C20.098 22.7535 19.2195 22.5024 17.9392 22.8519C16.3 23.2994 15.3305 24.9973 15.7784 26.6366C16.0021 27.4557 16.5385 28.108 17.2237 28.4993Z" fill="#7ADD78"/>
<path d="M18.7477 29.2583C18.1583 29.2583 17.576 29.1048 17.0494 28.8041C16.2525 28.3489 15.6806 27.6116 15.4393 26.7289C14.9409 24.9028 16.0206 23.0113 17.8468 22.5125C19.2219 22.1381 20.19 22.4145 21.0439 22.6583C21.9546 22.9189 22.7411 23.1455 24.0221 22.7099C24.1844 22.6541 24.366 22.6994 24.485 22.823C24.6038 22.947 24.6403 23.1304 24.5785 23.2905C23.5072 26.0457 22.3976 28.3868 19.6557 29.1357C19.3554 29.2179 19.0505 29.2583 18.7477 29.2583ZM19.1671 23.0295C18.825 23.0295 18.4534 23.0749 18.0319 23.1901C16.5795 23.5866 15.7203 25.091 16.1172 26.5434C16.309 27.2456 16.7639 27.8318 17.3979 28.194C18.0319 28.5561 18.7678 28.6499 19.4699 28.4578C21.7411 27.8375 22.785 25.8838 23.7302 23.5252C22.5251 23.8125 21.675 23.5698 20.8507 23.3334C20.309 23.1788 19.7871 23.0295 19.1671 23.0295Z" fill="black"/>
<path d="M16.034 26.6685C13.642 26.6685 11.3448 25.9116 9.34443 24.431C6.38445 22.2403 4.54565 18.7612 4.54565 15.3519C4.54565 15.158 4.70301 15.0007 4.8969 15.0007C5.09079 15.0007 5.24815 15.158 5.24815 15.3519C5.24815 18.5427 6.97771 21.8058 9.76242 23.8666C12.5503 25.9302 15.9578 26.4943 19.3575 25.457C19.5437 25.3991 19.7397 25.5052 19.7959 25.6903C19.8528 25.8757 19.7481 26.0721 19.5626 26.1286C18.3803 26.4897 17.1959 26.6685 16.034 26.6685Z" fill="black"/>
<path d="M14.7403 3.46497C14.0551 3.07367 13.2208 2.94336 12.4014 3.1671C9.81758 3.87277 8.74978 6.13587 7.71359 8.80045C7.70059 8.83382 7.70797 8.87211 7.73291 8.89775C7.75785 8.92374 7.79543 8.93287 7.8295 8.92128C9.21307 8.45201 10.0891 8.70245 11.0164 8.96765C11.8661 9.21071 12.7445 9.46186 14.0248 9.11236C15.6641 8.66487 16.6336 6.96693 16.1857 5.32764C15.962 4.50853 15.4256 3.85626 14.7403 3.46497Z" fill="#7ADD78"/>
<path d="M12.7993 9.63533C12.0722 9.63533 11.4723 9.46357 10.9198 9.30586C10.0083 9.04523 9.22219 8.82008 7.94223 9.25423C7.78031 9.30972 7.59801 9.26511 7.47893 9.14042C7.36126 9.01889 7.32403 8.83518 7.38585 8.67466C8.45752 5.9184 9.56747 3.57697 12.309 2.82846C13.1924 2.58715 14.1176 2.70517 14.9145 3.16004C15.7119 3.61526 16.2834 4.35253 16.5247 5.23557C16.766 6.11862 16.6483 7.04416 16.1927 7.84115C15.7375 8.63813 15.0002 9.20997 14.1172 9.45128C13.6314 9.58405 13.1962 9.63533 12.7993 9.63533ZM9.30508 8.30831C9.98686 8.30831 10.5555 8.47094 11.113 8.63041C11.9528 8.87066 12.7466 9.09827 13.9321 8.77372C14.6346 8.58193 15.2205 8.12706 15.5826 7.49306C15.9448 6.8587 16.0385 6.12283 15.8468 5.42068C15.655 4.71853 15.2001 4.1323 14.5661 3.77016C13.9321 3.40837 13.1962 3.31424 12.4937 3.50602C10.2232 4.12598 9.17863 6.08033 8.23342 8.43897C8.62401 8.34554 8.97772 8.30831 9.30508 8.30831Z" fill="black"/>
<path d="M27.0672 16.9638C26.8729 16.9638 26.7159 16.8068 26.7159 16.6126C26.7159 13.4215 24.986 10.1587 22.2016 8.09791C19.4134 6.03432 16.0056 5.46916 12.6065 6.5078C12.4214 6.56435 12.2247 6.46003 12.1678 6.27422C12.1113 6.08876 12.2156 5.89241 12.4014 5.83551C16.0182 4.73083 19.6481 5.33322 22.62 7.5331C25.58 9.72385 27.4184 13.203 27.4184 16.6126C27.4184 16.8068 27.261 16.9638 27.0672 16.9638Z" fill="black"/>
</g>
<defs>
<clipPath id="clip0_30_273">
<rect width="32" height="32" fill="white"/>
</clipPath>
</defs>
</svg>
