<svg width="32" height="32" viewBox="0 0 32 32" fill="none" xmlns="http://www.w3.org/2000/svg">
<g clip-path="url(#clip0_30_287)">
<path d="M15.9821 31.4371C24.5177 31.4371 31.4371 24.5177 31.4371 15.9821C31.4371 7.44654 24.5177 0.5271 15.9821 0.5271C7.44654 0.5271 0.5271 7.44654 0.5271 15.9821C0.5271 24.5177 7.44654 31.4371 15.9821 31.4371Z" fill="#DCF4DB"/>
<path d="M15.982 31.7883C7.26647 31.7883 0.175781 24.6977 0.175781 15.9821C0.175781 7.26653 7.26647 0.175842 15.982 0.175842C24.6976 0.175842 31.7883 7.26653 31.7883 15.9821C31.7883 24.6977 24.6976 31.7883 15.982 31.7883ZM15.982 0.878342C7.65389 0.878342 0.878281 7.65395 0.878281 15.9821C0.878281 24.3102 7.65389 31.0858 15.982 31.0858C24.3102 31.0858 31.0858 24.3102 31.0858 15.9821C31.0858 7.65395 24.3102 0.878342 15.982 0.878342Z" fill="black"/>
<path d="M16.9543 13.3428C17.3691 13.3428 17.7053 13.0066 17.7053 12.5919C17.7053 12.1771 17.3691 11.8409 16.9543 11.8409C16.5396 11.8409 16.2034 12.1771 16.2034 12.5919C16.2034 13.0066 16.5396 13.3428 16.9543 13.3428Z" fill="#49B1F2"/>
<path d="M23.1011 13.3428C23.5158 13.3428 23.852 13.0066 23.852 12.5919C23.852 12.1771 23.5158 11.8409 23.1011 11.8409C22.6863 11.8409 22.3501 12.1771 22.3501 12.5919C22.3501 13.0066 22.6863 13.3428 23.1011 13.3428Z" fill="#49B1F2"/>
<path d="M14.7935 10.7857V12.0548C14.7935 12.3523 15.0348 12.5932 15.3319 12.5932H16.2027C16.2027 12.1784 16.5388 11.8423 16.9536 11.8423C17.3685 11.8423 17.7046 12.1784 17.7046 12.5932H22.3495C22.3495 12.1784 22.6857 11.8423 23.1005 11.8423C23.5153 11.8423 23.8515 12.1784 23.8515 12.5932H24.691C24.9885 12.5932 25.2294 12.3519 25.2294 12.0548V10.7987C25.2294 10.6505 25.1683 10.5086 25.0605 10.4067L23.1332 8.58935C23.0254 8.48749 22.9642 8.34593 22.9642 8.19735V7.49696C22.9642 7.19945 22.7229 6.9585 22.4258 6.9585H15.3323C15.0348 6.9585 14.7938 7.19981 14.7938 7.49696V8.55739" fill="#FDBC4B"/>
<path d="M16.954 13.6955C16.3464 13.6955 15.8518 13.2009 15.8518 12.5933C15.8518 11.9856 16.3464 11.491 16.954 11.491C17.5617 11.491 18.0563 11.9856 18.0563 12.5933C18.0563 13.2009 17.5617 13.6955 16.954 13.6955ZM16.954 12.1935C16.7334 12.1935 16.5543 12.373 16.5543 12.5933C16.5543 12.8135 16.7334 12.993 16.954 12.993C17.1743 12.993 17.3538 12.8135 17.3538 12.5933C17.3538 12.373 17.1743 12.1935 16.954 12.1935Z" fill="black"/>
<path d="M23.1009 13.6955C22.4932 13.6955 21.9983 13.2009 21.9983 12.5933C21.9983 11.9856 22.4929 11.491 23.1009 11.491C23.7089 11.491 24.2031 11.9856 24.2031 12.5933C24.2031 13.2009 23.7085 13.6955 23.1009 13.6955ZM23.1009 12.1935C22.8803 12.1935 22.7008 12.373 22.7008 12.5933C22.7008 12.8135 22.8803 12.993 23.1009 12.993C23.3211 12.993 23.5006 12.8135 23.5006 12.5933C23.5006 12.373 23.3211 12.1935 23.1009 12.1935Z" fill="black"/>
<path d="M24.6914 12.9445H23.8515C23.6573 12.9445 23.5003 12.7871 23.5003 12.5932C23.5003 12.373 23.3208 12.1935 23.1006 12.1935C22.88 12.1935 22.7005 12.373 22.7005 12.5932C22.7005 12.7871 22.5435 12.9445 22.3492 12.9445H17.7047C17.5104 12.9445 17.3534 12.7871 17.3534 12.5932C17.3534 12.373 17.1739 12.1935 16.9537 12.1935C16.7331 12.1935 16.5536 12.373 16.5536 12.5932C16.5536 12.7871 16.3966 12.9445 16.2024 12.9445H15.3316C14.8409 12.9445 14.4419 12.5455 14.4419 12.0548V10.8872C14.4419 10.6933 14.5993 10.536 14.7931 10.536C14.987 10.536 15.1444 10.6933 15.1444 10.8872V12.0548C15.1444 12.158 15.2283 12.242 15.3316 12.242H15.9084C16.0555 11.8057 16.4683 11.491 16.9533 11.491C17.4384 11.491 17.8511 11.8057 17.9983 12.242H22.0552C22.2024 11.8057 22.6155 11.491 23.1006 11.491C23.5856 11.491 23.9984 11.8057 24.1455 12.242H24.6914C24.7946 12.242 24.8786 12.158 24.8786 12.0548V10.7987C24.8786 10.7474 24.8568 10.6975 24.8196 10.6621L22.8923 8.8447C22.7149 8.6768 22.613 8.44112 22.613 8.19735V7.49696C22.613 7.39369 22.5291 7.30974 22.4258 7.30974H15.332C15.2287 7.30974 15.1447 7.39369 15.1447 7.49696V7.89176C15.1447 8.08565 14.9874 8.24301 14.7935 8.24301C14.5996 8.24301 14.4422 8.08565 14.4422 7.89176V7.49696C14.4422 7.00626 14.8413 6.60724 15.332 6.60724H22.4255C22.9158 6.60724 23.3152 7.00626 23.3152 7.49696V8.19735C23.3152 8.24863 23.3369 8.29851 23.3742 8.33398L25.3015 10.1514C25.4789 10.3192 25.5807 10.5549 25.5807 10.7987V12.0548C25.5811 12.5455 25.1817 12.9445 24.6914 12.9445Z" fill="black"/>
<path d="M24.8096 24.6545H10.035C8.02129 24.6545 6.38306 23.0162 6.38306 21.0025V12.7495C6.38306 10.7358 8.02129 9.0976 10.035 9.0976H17.0821C17.2764 9.0976 17.4334 9.25496 17.4334 9.44885C17.4334 9.64274 17.2764 9.8001 17.0821 9.8001H10.035C8.40872 9.8001 7.08556 11.1233 7.08556 12.7495V21.0025C7.08556 22.6291 8.40872 23.952 10.035 23.952H24.8096C25.0039 23.952 25.1609 24.109 25.1609 24.3032C25.1609 24.4974 25.0039 24.6545 24.8096 24.6545Z" fill="black"/>
<path d="M20.5069 20.8427H18.4457C18.2515 20.8427 18.0945 20.6857 18.0945 20.4914V15.8423C18.0945 15.6484 18.2515 15.491 18.4457 15.491H20.5069C20.7011 15.491 20.8581 15.6484 20.8581 15.8423C20.8581 16.0362 20.7011 16.1935 20.5069 16.1935H18.797V20.1402H20.5069C20.7011 20.1402 20.8581 20.2972 20.8581 20.4914C20.8581 20.6857 20.7011 20.8427 20.5069 20.8427Z" fill="black"/>
<path d="M19.7938 18.5181H18.4457C18.2515 18.5181 18.0945 18.3611 18.0945 18.1669C18.0945 17.9726 18.2515 17.8156 18.4457 17.8156H19.7938C19.9881 17.8156 20.1451 17.9726 20.1451 18.1669C20.1451 18.3611 19.9877 18.5181 19.7938 18.5181Z" fill="black"/>
<path d="M24.4806 20.8427H22.4199C22.2256 20.8427 22.0686 20.6857 22.0686 20.4914V15.8423C22.0686 15.6484 22.2256 15.491 22.4199 15.491H24.4806C24.6749 15.491 24.8319 15.6484 24.8319 15.8423C24.8319 16.0362 24.6749 16.1935 24.4806 16.1935H22.7711V20.1402H24.4806C24.6749 20.1402 24.8319 20.2972 24.8319 20.4914C24.8319 20.6857 24.6749 20.8427 24.4806 20.8427Z" fill="black"/>
<path d="M23.768 18.5181H22.4199C22.2256 18.5181 22.0686 18.3611 22.0686 18.1669C22.0686 17.9726 22.2256 17.8156 22.4199 17.8156H23.768C23.9622 17.8156 24.1192 17.9726 24.1192 18.1669C24.1192 18.3611 23.9622 18.5181 23.768 18.5181Z" fill="black"/>
<path d="M10.4977 20.8427C10.3038 20.8427 10.1465 20.6857 10.1465 20.4914V15.8423C10.1465 15.6484 10.3038 15.491 10.4977 15.491H12.5589C12.7528 15.491 12.9101 15.6484 12.9101 15.8423C12.9101 16.0362 12.7528 16.1935 12.5589 16.1935H10.849V20.4914C10.849 20.6857 10.6916 20.8427 10.4977 20.8427Z" fill="black"/>
<path d="M11.8458 18.5181H10.4977C10.3038 18.5181 10.1465 18.3611 10.1465 18.1669C10.1465 17.9726 10.3038 17.8156 10.4977 17.8156H11.8458C12.0397 17.8156 12.1971 17.9726 12.1971 18.1669C12.1971 18.3611 12.0397 18.5181 11.8458 18.5181Z" fill="black"/>
<path d="M15.4389 18.5181H14.1442C13.9503 18.5181 13.793 18.3611 13.793 18.1669V15.8423C13.793 15.6484 13.9503 15.491 14.1442 15.491H15.4389C16.1228 15.491 16.6788 16.0474 16.6788 16.7313V17.2782C16.6788 17.9617 16.1228 18.5181 15.4389 18.5181ZM14.4958 17.8156H15.4393C15.7357 17.8156 15.977 17.5743 15.977 17.2782V16.7313C15.977 16.4348 15.7357 16.1935 15.4393 16.1935H14.4958V17.8156Z" fill="black"/>
<path d="M16.3279 20.8427C16.134 20.8427 15.9767 20.6857 15.9767 20.4914V19.0555C15.9767 18.7591 15.7354 18.5181 15.4389 18.5181H14.4955V20.4914C14.4955 20.6857 14.3381 20.8427 14.1442 20.8427C13.9503 20.8427 13.793 20.6857 13.793 20.4914V18.1669C13.793 17.9726 13.9503 17.8156 14.1442 17.8156H15.4389C16.1228 17.8156 16.6788 18.372 16.6788 19.0555V20.4914C16.6788 20.6857 16.5218 20.8427 16.3279 20.8427Z" fill="black"/>
<path d="M12.5584 11.6487H10.0744C9.8805 11.6487 9.72314 11.4914 9.72314 11.2975C9.72314 11.1036 9.8805 10.9462 10.0744 10.9462H12.5584C12.7523 10.9462 12.9097 11.1036 12.9097 11.2975C12.9097 11.4914 12.7527 11.6487 12.5584 11.6487Z" fill="black"/>
<path d="M13.2608 8.13622H10.7768C10.5829 8.13622 10.4255 7.97886 10.4255 7.78497C10.4255 7.59108 10.5829 7.43372 10.7768 7.43372H13.2608C13.4547 7.43372 13.6121 7.59108 13.6121 7.78497C13.6121 7.97886 13.4551 8.13622 13.2608 8.13622Z" fill="black"/>
</g>
<defs>
<clipPath id="clip0_30_287">
<rect width="32" height="32" fill="white"/>
</clipPath>
</defs>
</svg>
