<svg width="40" height="40" viewBox="0 0 40 40" fill="none" xmlns="http://www.w3.org/2000/svg">
<g clip-path="url(#clip0_44_9)">
<path d="M27.3751 4.375C22.5907 4.375 18.7001 8.26562 18.7001 13.05C18.7001 13.3375 18.772 13.6188 18.8001 13.9C12.8845 13.3344 7.65322 10.4844 4.1001 6.125C3.93448 5.91562 3.67822 5.80313 3.40948 5.82188C3.14385 5.84063 2.90635 5.99375 2.7751 6.225C2.02822 7.50938 1.6001 8.9875 1.6001 10.575C1.6001 12.4969 2.2876 14.2563 3.3501 15.7C3.14385 15.6094 2.91885 15.5594 2.7251 15.45C2.47822 15.3188 2.18135 15.325 1.94072 15.4688C1.7001 15.6125 1.55322 15.8719 1.5501 16.15V16.25C1.5501 19.1969 3.0751 21.7563 5.3251 23.325C5.3001 23.3219 5.2751 23.3313 5.2501 23.325C4.9751 23.2781 4.69698 23.375 4.5126 23.5844C4.32822 23.7938 4.26885 24.0844 4.3501 24.35C5.24385 27.1281 7.5251 29.25 10.3501 30.025C8.1001 31.3625 5.49072 32.15 2.6751 32.15C2.06572 32.15 1.48135 32.1188 0.9001 32.05C0.5251 32 0.165724 32.2188 0.0407245 32.575C-0.0874005 32.9313 0.0532245 33.3281 0.3751 33.525C3.98448 35.8406 8.26885 37.2 12.8751 37.2C20.3407 37.2 26.197 34.0813 30.1251 29.625C34.0532 25.1688 36.1001 19.3813 36.1001 13.975C36.1001 13.7469 36.0814 13.525 36.0751 13.3C37.5407 12.1781 38.8501 10.8625 39.8751 9.325C40.0782 9.02812 40.0564 8.63125 39.822 8.35625C39.5907 8.08125 39.2001 7.99688 38.8751 8.15C38.4626 8.33438 37.9814 8.35312 37.5501 8.5C38.1189 7.74062 38.6064 6.92188 38.9001 6C39.0001 5.68438 38.8907 5.3375 38.6314 5.13125C38.372 4.92812 38.0095 4.90312 37.7251 5.075C36.3595 5.88438 34.847 6.45312 33.2501 6.8C31.7001 5.35 29.6595 4.375 27.3751 4.375ZM27.3751 5.975C29.4157 5.975 31.2595 6.84688 32.5501 8.225C32.7439 8.425 33.0282 8.50938 33.3001 8.45C34.3439 8.24375 35.3345 7.94062 36.3001 7.55C35.7439 8.3 35.0564 8.94062 34.2501 9.425C33.8845 9.60312 33.7126 10.025 33.847 10.4094C33.9782 10.7906 34.3782 11.0125 34.7751 10.925C35.5751 10.8281 36.2876 10.5031 37.0501 10.3C36.3657 11.0406 35.6157 11.7094 34.8001 12.3C34.5782 12.4625 34.4564 12.725 34.4751 13C34.4876 13.325 34.5001 13.6469 34.5001 13.975C34.5001 18.975 32.5814 24.4031 28.9251 28.55C25.2689 32.6969 19.9001 35.6 12.8751 35.6C9.68448 35.6 6.67198 34.8938 3.9501 33.65C7.3251 33.3906 10.4376 32.1969 12.9501 30.225C13.2126 30.0156 13.3157 29.6656 13.2095 29.3469C13.1032 29.0281 12.8095 28.8094 12.4751 28.8C9.8376 28.7531 7.62822 27.2188 6.4501 25.05C6.49385 25.05 6.53135 25.05 6.5751 25.05C7.36572 25.05 8.14698 24.95 8.8751 24.75C9.2251 24.6469 9.46573 24.3219 9.45323 23.9563C9.44073 23.5906 9.18135 23.2781 8.8251 23.2C5.97822 22.625 3.84385 20.3063 3.3501 17.425C4.15635 17.7031 4.98135 17.9219 5.8751 17.95C6.24072 17.9719 6.57197 17.7438 6.68447 17.3969C6.79697 17.05 6.65948 16.6688 6.3501 16.475C4.4501 15.2031 3.2001 13.0375 3.2001 10.575C3.2001 9.6625 3.4376 8.825 3.7501 8.025C7.7501 12.4156 13.3501 15.3313 19.6751 15.65C19.9251 15.6625 20.1689 15.5594 20.3314 15.3688C20.4939 15.175 20.5564 14.9188 20.5001 14.675C20.3782 14.1563 20.3001 13.6063 20.3001 13.05C20.3001 9.13125 23.4564 5.975 27.3751 5.975Z" fill="#EDFFF3"/>
</g>
<defs>
<clipPath id="clip0_44_9">
<rect width="40" height="40" fill="white"/>
</clipPath>
</defs>
</svg>
