<svg width="32" height="32" viewBox="0 0 32 32" fill="none" xmlns="http://www.w3.org/2000/svg">
<g clip-path="url(#clip0_28_106)">
<path d="M15.982 31.4371C24.5175 31.4371 31.437 24.5177 31.437 15.9821C31.437 7.44654 24.5175 0.5271 15.982 0.5271C7.44642 0.5271 0.526978 7.44654 0.526978 15.9821C0.526978 24.5177 7.44642 31.4371 15.982 31.4371Z" fill="#DCF4DB"/>
<path d="M15.982 31.7883C7.26647 31.7883 0.175781 24.6977 0.175781 15.9821C0.175781 7.26653 7.26647 0.175842 15.982 0.175842C24.6976 0.175842 31.7883 7.26653 31.7883 15.9821C31.7883 24.6977 24.6976 31.7883 15.982 31.7883ZM15.982 0.878342C7.65389 0.878342 0.878281 7.65395 0.878281 15.9821C0.878281 24.3102 7.65389 31.0858 15.982 31.0858C24.3102 31.0858 31.0858 24.3102 31.0858 15.9821C31.0858 7.65395 24.3102 0.878342 15.982 0.878342Z" fill="black"/>
<path d="M7.64722 23.2603H7.25628C6.59348 23.2603 6.05396 22.7356 6.05396 22.0907C6.05396 21.8964 6.21132 21.7394 6.40521 21.7394C6.5991 21.7394 6.75646 21.8964 6.75646 22.0907C6.75646 22.3482 6.98055 22.5578 7.25628 22.5578H7.64722C7.94754 22.5578 8.19201 22.3288 8.19201 22.0471V21.6643C8.19201 21.3829 7.94754 21.1539 7.64722 21.1539H7.3016C6.61385 21.1539 6.05396 20.6095 6.05396 19.9407V19.5578C6.05396 18.889 6.6135 18.3446 7.3016 18.3446H7.69218C8.35499 18.3446 8.89451 18.8694 8.89451 19.5143C8.89451 19.7085 8.73715 19.8655 8.54326 19.8655C8.34937 19.8655 8.19201 19.7085 8.19201 19.5143C8.19201 19.2568 7.96792 19.0471 7.69218 19.0471H7.3016C7.00128 19.0471 6.75646 19.2761 6.75646 19.5578V19.9407C6.75646 20.2224 7.00093 20.4514 7.3016 20.4514H7.64722C8.33497 20.4514 8.89451 20.9955 8.89451 21.6643V22.0471C8.89451 22.7159 8.33497 23.2603 7.64722 23.2603Z" fill="black"/>
<path d="M12.4769 19.0471H9.81939C9.6255 19.0471 9.46814 18.8901 9.46814 18.6959C9.46814 18.5016 9.6255 18.3446 9.81939 18.3446H12.4769C12.6708 18.3446 12.8282 18.5016 12.8282 18.6959C12.8282 18.8901 12.6708 19.0471 12.4769 19.0471Z" fill="black"/>
<path d="M11.1481 23.2603C10.9542 23.2603 10.7969 23.1033 10.7969 22.9091V18.6959C10.7969 18.5016 10.9542 18.3446 11.1481 18.3446C11.342 18.3446 11.4994 18.5016 11.4994 18.6959V22.9091C11.4994 23.103 11.342 23.2603 11.1481 23.2603Z" fill="black"/>
<path d="M15.6389 23.2603H14.8405C14.1457 23.2603 13.5809 22.6955 13.5809 22.0008V19.6045C13.5809 18.9098 14.1461 18.3446 14.8405 18.3446H15.6386C16.3333 18.3446 16.8981 18.9098 16.8981 19.6045V22.0008C16.8985 22.6952 16.3337 23.2603 15.6389 23.2603ZM14.8405 19.0471C14.5332 19.0471 14.2834 19.2972 14.2834 19.6045V22.0008C14.2834 22.3078 14.5332 22.5578 14.8405 22.5578H15.6386C15.9459 22.5578 16.1956 22.3078 16.1956 22.0008V19.6045C16.1956 19.2972 15.9459 19.0471 15.6386 19.0471H14.8405Z" fill="black"/>
<path d="M20.3274 23.2603H19.5294C18.8346 23.2603 18.2698 22.6955 18.2698 22.0008V19.6045C18.2698 18.9098 18.8346 18.3446 19.5294 18.3446H20.3274C21.0222 18.3446 21.587 18.9098 21.587 19.6045C21.587 19.7988 21.43 19.9558 21.2357 19.9558C21.0415 19.9558 20.8845 19.7988 20.8845 19.6045C20.8845 19.2972 20.6344 19.0471 20.3274 19.0471H19.5294C19.2224 19.0471 18.9723 19.2972 18.9723 19.6045V22.0008C18.9723 22.3078 19.2224 22.5578 19.5294 22.5578H20.3274C20.6344 22.5578 20.8845 22.3078 20.8845 22.0008C20.8845 21.8065 21.0415 21.6495 21.2357 21.6495C21.43 21.6495 21.587 21.8065 21.587 22.0008C21.587 22.6952 21.0222 23.2603 20.3274 23.2603Z" fill="black"/>
<path d="M23.2811 23.2603C23.0868 23.2603 22.9298 23.1033 22.9298 22.9091V18.6959C22.9298 18.5016 23.0868 18.3446 23.2811 18.3446C23.4753 18.3446 23.6323 18.5016 23.6323 18.6959V22.9091C23.6323 23.103 23.4753 23.2603 23.2811 23.2603Z" fill="black"/>
<path d="M25.5547 23.2561C25.4693 23.2561 25.384 23.2252 25.3162 23.1627L23.0426 21.0605C22.9706 20.9941 22.9298 20.9006 22.9298 20.8026C22.9298 20.705 22.9706 20.6112 23.0426 20.5448L25.3204 18.438C25.4623 18.3067 25.6843 18.3147 25.8167 18.4577C25.9485 18.6 25.9397 18.8223 25.7971 18.954L23.7981 20.803L25.7928 22.6474C25.9351 22.7791 25.9442 23.0015 25.8125 23.1437C25.7433 23.2182 25.6488 23.2561 25.5547 23.2561Z" fill="black"/>
<path d="M16.7759 7.65045H8.73926V15.6871H16.7759V7.65045Z" fill="#EAC27E"/>
<path d="M13.6849 12.5153L12.7576 11.725L11.8268 12.5153V7.65045H13.6849V12.5153Z" fill="#FDBC4B"/>
<path d="M16.7751 16.0386H8.73785C8.54396 16.0386 8.3866 15.8813 8.3866 15.6874V7.65044C8.3866 7.45655 8.54396 7.29919 8.73785 7.29919H16.7751C16.9694 7.29919 17.1264 7.45655 17.1264 7.65044V15.6874C17.1264 15.8813 16.9694 16.0386 16.7751 16.0386ZM9.0891 15.3361H16.4239V8.00169H9.0891V15.3361Z" fill="black"/>
<path d="M13.6855 12.8683C13.6037 12.8683 13.5225 12.8395 13.4576 12.7843L12.7561 12.1861L12.0547 12.7843C11.9507 12.8735 11.8042 12.8939 11.6795 12.8359C11.5552 12.7787 11.4755 12.654 11.4755 12.517V7.65044C11.4755 7.45655 11.6328 7.29919 11.8267 7.29919H13.6855C13.8794 7.29919 14.0368 7.45655 14.0368 7.65044V12.517C14.0368 12.654 13.957 12.7787 13.8327 12.8359C13.786 12.8574 13.7354 12.8683 13.6855 12.8683ZM12.1783 8.00169V11.7559L12.5285 11.4573C12.6599 11.3452 12.8531 11.3452 12.9844 11.4573L13.3346 11.7559V8.00169H12.1783Z" fill="black"/>
<path d="M23.2283 9.23456H16.7759V15.687H23.2283V9.23456Z" fill="#EAC27E"/>
<path d="M20.745 13.144L20.0004 12.5047L19.2557 13.144V9.23456H20.745V13.144Z" fill="#FDBC4B"/>
<path d="M23.2263 16.0387H16.7752C16.581 16.0387 16.424 15.8813 16.424 15.6874V9.23602C16.424 9.04213 16.581 8.88477 16.7752 8.88477H23.2263C23.4205 8.88477 23.5775 9.04213 23.5775 9.23602V15.6874C23.5775 15.8813 23.4205 16.0387 23.2263 16.0387ZM17.1265 15.3362H22.875V9.58727H17.1265V15.3362Z" fill="black"/>
<path d="M20.7463 13.4939C20.6645 13.4939 20.5833 13.4651 20.5187 13.4099L20.0003 12.9684L19.4825 13.4099C19.3782 13.4991 19.231 13.5185 19.1074 13.4616C18.9831 13.4039 18.9033 13.2796 18.9033 13.1426V9.23602C18.9033 9.04213 19.0603 8.88477 19.2546 8.88477H20.7463C20.9406 8.88477 21.0976 9.04213 21.0976 9.23602V13.1426C21.0976 13.2796 21.0178 13.4043 20.8935 13.4616C20.8468 13.4833 20.7966 13.4939 20.7463 13.4939ZM20.0003 12.1553C20.0811 12.1553 20.1626 12.1834 20.2279 12.2392L20.3951 12.3815V9.58727H19.6058V12.3811L19.7723 12.2392C19.8383 12.1834 19.9191 12.1553 20.0003 12.1553Z" fill="black"/>
</g>
<defs>
<clipPath id="clip0_28_106">
<rect width="32" height="32" fill="white"/>
</clipPath>
</defs>
</svg>
