<svg width="40" height="40" viewBox="0 0 40 40" fill="none" xmlns="http://www.w3.org/2000/svg">
<path d="M7.19995 3.19995C5.00034 3.19995 3.19995 5.00034 3.19995 7.19995V32.8C3.19995 34.9996 5.00034 36.8 7.19995 36.8H32.8C34.9996 36.8 36.8 34.9996 36.8 32.8V7.19995C36.8 5.00034 34.9996 3.19995 32.8 3.19995H7.19995ZM7.19995 4.79995H32.8C34.1347 4.79995 35.2 5.86516 35.2 7.19995V32.8C35.2 34.1347 34.1347 35.2 32.8 35.2H7.19995C5.86516 35.2 4.79995 34.1347 4.79995 32.8V7.19995C4.79995 5.86516 5.86516 4.79995 7.19995 4.79995ZM12 6.39995C12.3312 7.21035 13.9216 10.7049 14.4 11.9953V15.2H16V12L18.4 6.39995H16.4796L15.2 9.59995L13.9203 6.39995H12ZM20 8.79995C19.1952 8.79995 18.5831 9.0202 18.1343 9.5562C17.7879 9.9522 17.6015 10.5874 17.6015 11.425L17.6 12.5812C17.6 13.414 17.7645 13.99 18.1109 14.3828C18.5605 14.9164 19.2888 15.2 20 15.2C20.7112 15.2 21.4527 14.9164 21.9031 14.3812C22.2439 13.9892 22.4 13.414 22.4 12.5812V11.4203C22.4 10.5819 22.2064 9.9522 21.8656 9.5562C21.416 9.0202 20.7112 8.79995 20 8.79995ZM23.2 8.79995V13.4703C23.2 13.9983 23.2786 14.3571 23.3906 14.5875C23.5746 14.9659 23.943 15.1597 24.4718 15.1765C25.2006 15.2005 25.748 14.728 26.4 14.1V15.2H28V8.79995H26.4V13.1C26.036 13.5312 25.6171 13.914 25.2875 13.914C25.0691 13.914 24.84 13.8136 24.8 13.6V8.79995H23.2ZM20 10.0953C20.4416 10.0953 20.8 10.4613 20.8 10.9125V13.1578C20.8 13.6082 20.4416 13.975 20 13.975C19.5584 13.975 19.2 13.609 19.2 13.1578V10.9125C19.2 10.4621 19.5584 10.0953 20 10.0953ZM19.9921 17.6C19.9921 17.6 14.6246 17.6002 11.0406 17.8562C10.5366 17.9122 9.44783 17.9203 8.47183 18.9203C7.70383 19.6723 7.4562 21.4 7.4562 21.4C7.4562 21.4 7.19995 22.6244 7.19995 24.6484V26.5437C7.19995 28.5677 7.4562 29.7921 7.4562 29.7921C7.4562 29.7921 7.70383 31.5196 8.47183 32.2796C9.44783 33.2716 10.7273 33.2397 11.2953 33.3437C13.3433 33.5357 20 33.6 20 33.6C20 33.6 25.3753 33.5919 28.9593 33.3359C29.4633 33.2799 30.5521 33.2718 31.5281 32.2718C32.2961 31.5198 32.5437 29.7921 32.5437 29.7921C32.5437 29.7921 32.8 28.5677 32.8 26.5437V24.6484C32.8 22.6244 32.5437 21.4 32.5437 21.4C32.5437 21.4 32.2961 19.6723 31.5281 18.9203C30.5521 17.9203 29.4633 17.9122 28.9593 17.8562C25.3753 17.6002 20.0078 17.6 20.0078 17.6H19.9921ZM9.59995 20.8H14.4V22.4H12.8V30.4H11.2V22.4H9.59995V20.8ZM20 20.8H21.6V24.3046C22.2 23.6006 22.5193 23.192 23.2953 23.2C23.9033 23.208 24.3921 23.5525 24.5921 24.1765C24.6961 24.5125 24.8 25.1126 24.8 25.9046V28.1046C24.792 28.8086 24.7194 29.1202 24.6234 29.4562C24.4234 30.0802 23.9033 30.4 23.2953 30.4C22.7593 30.4 22.104 30.024 21.6 29.4V30.4H20V20.8ZM14.4 23.2H16V28.7125C16.04 28.9445 16.2076 29.0312 16.4156 29.0312C16.7356 29.0312 17.248 28.6796 17.6 28.2156V23.2H19.2V30.4H17.6V29.3046C16.968 29.9926 16.2152 30.4 15.6312 30.4C15.1192 30.4 14.7603 30.1767 14.5843 29.7687C14.4803 29.5127 14.4 29.1275 14.4 28.5515V23.2ZM28.0234 23.2C28.8154 23.2 29.4475 23.4559 29.8875 23.9359C30.2155 24.2879 30.4 24.8323 30.4 25.5843V27.2H27.2V28.6406C27.2 29.0086 27.56 29.3125 28 29.3125C28.44 29.3125 28.8 29.0086 28.8 28.6406V28H30.4C30.4 28.408 30.3517 28.7516 30.3437 28.8796C30.2877 29.1596 30.1607 29.4166 29.9687 29.6406C29.5367 30.1526 28.888 30.4 28.064 30.4C27.232 30.4 26.6075 30.1596 26.1515 29.6796C25.8155 29.3356 25.6 28.808 25.6 28.064V25.6156C25.6 24.8636 25.7919 24.2879 26.1359 23.9359C26.5919 23.4559 27.2154 23.2 28.0234 23.2ZM28 24.3593C27.56 24.3593 27.2 24.6552 27.2 25.0312V26.0875H28.8V25.0312C28.8 24.6552 28.44 24.3593 28 24.3593ZM22.5765 24.6C22.4525 24.6 22.2716 24.6622 22.0906 24.7562C22.0001 24.8032 21.9091 24.8579 21.825 24.9171C21.7408 24.9764 21.664 25.0406 21.6 25.1046V28.6C21.664 28.664 21.7408 28.7232 21.825 28.775C22.0773 28.9302 22.3905 29.0234 22.5765 29.0234C22.7385 29.0234 22.8654 28.9839 22.9625 28.889C22.9948 28.8574 23.0245 28.8192 23.05 28.775C23.101 28.6865 23.1377 28.5716 23.1625 28.4265C23.1872 28.2814 23.2 28.1053 23.2 27.8953V25.7046C23.2 25.4946 23.1872 25.3194 23.1625 25.1765C23.113 24.8908 23.0137 24.7304 22.8562 24.6546C22.7775 24.6168 22.6845 24.6 22.5765 24.6Z" fill="#EDFFF3"/>
</svg>
