<svg width="177" height="30" viewBox="0 0 177 30" fill="none" xmlns="http://www.w3.org/2000/svg">
<path d="M11.916 29C11.388 29 10.944 28.82 10.584 28.46C10.224 28.1 10.044 27.656 10.044 27.128V0.883999H13.788V27.128C13.788 27.656 13.608 28.1 13.248 28.46C12.888 28.82 12.444 29 11.916 29ZM2.268 4.34C1.764 4.34 1.344 4.184 1.008 3.872C0.696 3.536 0.54 3.116 0.54 2.612C0.54 2.108 0.696 1.7 1.008 1.388C1.344 1.052 1.764 0.883999 2.268 0.883999H21.528C22.032 0.883999 22.44 1.052 22.752 1.388C23.088 1.7 23.256 2.108 23.256 2.612C23.256 3.116 23.088 3.536 22.752 3.872C22.44 4.184 22.032 4.34 21.528 4.34H2.268ZM30.8787 29.144C28.8867 29.144 27.1107 28.724 25.5507 27.884C24.0147 27.02 22.8027 25.844 21.9147 24.356C21.0507 22.844 20.6187 21.116 20.6187 19.172C20.6187 17.204 21.0267 15.476 21.8427 13.988C22.6827 12.476 23.8347 11.3 25.2987 10.46C26.7627 9.596 28.4427 9.164 30.3387 9.164C32.2107 9.164 33.8187 9.584 35.1627 10.424C36.5067 11.24 37.5267 12.38 38.2227 13.844C38.9427 15.284 39.3027 16.952 39.3027 18.848C39.3027 19.304 39.1467 19.688 38.8347 20C38.5227 20.288 38.1267 20.432 37.6467 20.432H23.1387V17.552H37.5387L36.0627 18.56C36.0387 17.36 35.7987 16.292 35.3427 15.356C34.8867 14.396 34.2387 13.64 33.3987 13.088C32.5587 12.536 31.5387 12.26 30.3387 12.26C28.9707 12.26 27.7947 12.56 26.8107 13.16C25.8507 13.76 25.1187 14.588 24.6147 15.644C24.1107 16.676 23.8587 17.852 23.8587 19.172C23.8587 20.492 24.1587 21.668 24.7587 22.7C25.3587 23.732 26.1867 24.548 27.2427 25.148C28.2987 25.748 29.5107 26.048 30.8787 26.048C31.6227 26.048 32.3787 25.916 33.1467 25.652C33.9387 25.364 34.5747 25.04 35.0547 24.68C35.4147 24.416 35.7987 24.284 36.2067 24.284C36.6387 24.26 37.0107 24.38 37.3227 24.644C37.7307 25.004 37.9467 25.4 37.9707 25.832C37.9947 26.264 37.8027 26.636 37.3947 26.948C36.5787 27.596 35.5587 28.124 34.3347 28.532C33.1347 28.94 31.9827 29.144 30.8787 29.144ZM45.7501 16.688C45.7501 15.248 46.0981 13.964 46.7941 12.836C47.5141 11.684 48.4741 10.772 49.6741 10.1C50.8741 9.428 52.1941 9.092 53.6341 9.092C55.0741 9.092 56.1421 9.332 56.8381 9.812C57.5581 10.268 57.8341 10.82 57.6661 11.468C57.5941 11.804 57.4501 12.068 57.2341 12.26C57.0421 12.428 56.8141 12.536 56.5501 12.584C56.2861 12.632 55.9981 12.62 55.6861 12.548C54.1501 12.236 52.7701 12.212 51.5461 12.476C50.3221 12.74 49.3501 13.232 48.6301 13.952C47.9341 14.672 47.5861 15.584 47.5861 16.688H45.7501ZM45.7861 29C45.2101 29 44.7661 28.856 44.4541 28.568C44.1421 28.256 43.9861 27.8 43.9861 27.2V11.108C43.9861 10.532 44.1421 10.088 44.4541 9.776C44.7661 9.464 45.2101 9.308 45.7861 9.308C46.3861 9.308 46.8301 9.464 47.1181 9.776C47.4301 10.064 47.5861 10.508 47.5861 11.108V27.2C47.5861 27.776 47.4301 28.22 47.1181 28.532C46.8301 28.844 46.3861 29 45.7861 29ZM69.3045 29.144C67.3125 29.144 65.5365 28.724 63.9765 27.884C62.4405 27.02 61.2285 25.844 60.3405 24.356C59.4765 22.844 59.0445 21.116 59.0445 19.172C59.0445 17.204 59.4525 15.476 60.2685 13.988C61.1085 12.476 62.2605 11.3 63.7245 10.46C65.1885 9.596 66.8685 9.164 68.7645 9.164C70.6365 9.164 72.2445 9.584 73.5885 10.424C74.9325 11.24 75.9525 12.38 76.6485 13.844C77.3685 15.284 77.7285 16.952 77.7285 18.848C77.7285 19.304 77.5725 19.688 77.2605 20C76.9485 20.288 76.5525 20.432 76.0725 20.432H61.5645V17.552H75.9645L74.4885 18.56C74.4645 17.36 74.2245 16.292 73.7685 15.356C73.3125 14.396 72.6645 13.64 71.8245 13.088C70.9845 12.536 69.9645 12.26 68.7645 12.26C67.3965 12.26 66.2205 12.56 65.2365 13.16C64.2765 13.76 63.5445 14.588 63.0405 15.644C62.5365 16.676 62.2845 17.852 62.2845 19.172C62.2845 20.492 62.5845 21.668 63.1845 22.7C63.7845 23.732 64.6125 24.548 65.6685 25.148C66.7245 25.748 67.9365 26.048 69.3045 26.048C70.0485 26.048 70.8045 25.916 71.5725 25.652C72.3645 25.364 73.0005 25.04 73.4805 24.68C73.8405 24.416 74.2245 24.284 74.6325 24.284C75.0645 24.26 75.4365 24.38 75.7485 24.644C76.1565 25.004 76.3725 25.4 76.3965 25.832C76.4205 26.264 76.2285 26.636 75.8205 26.948C75.0045 27.596 73.9845 28.124 72.7605 28.532C71.5605 28.94 70.4085 29.144 69.3045 29.144ZM89.5759 29.144C87.8959 29.144 86.3359 28.892 84.8959 28.388C83.4799 27.86 82.3759 27.2 81.5839 26.408C81.2239 26.024 81.0679 25.592 81.1159 25.112C81.1879 24.608 81.4279 24.2 81.8359 23.888C82.3159 23.504 82.7839 23.348 83.2399 23.42C83.7199 23.468 84.1279 23.672 84.4639 24.032C84.8719 24.488 85.5199 24.92 86.4079 25.328C87.3199 25.712 88.3279 25.904 89.4319 25.904C90.8239 25.904 91.8799 25.676 92.5999 25.22C93.3439 24.764 93.7279 24.176 93.7519 23.456C93.7759 22.736 93.4279 22.112 92.7079 21.584C92.0119 21.056 90.7279 20.624 88.8559 20.288C86.4319 19.808 84.6679 19.088 83.5639 18.128C82.4839 17.168 81.9439 15.992 81.9439 14.6C81.9439 13.376 82.3039 12.368 83.0239 11.576C83.7439 10.76 84.6679 10.16 85.7959 9.776C86.9239 9.368 88.0999 9.164 89.3239 9.164C90.9079 9.164 92.3119 9.416 93.5359 9.92C94.7599 10.424 95.7319 11.12 96.4519 12.008C96.7879 12.392 96.9439 12.8 96.9199 13.232C96.8959 13.64 96.6919 13.988 96.3079 14.276C95.9239 14.54 95.4679 14.624 94.9399 14.528C94.4119 14.432 93.9679 14.216 93.6079 13.88C93.0079 13.304 92.3599 12.908 91.6639 12.692C90.9679 12.476 90.1639 12.368 89.2519 12.368C88.1959 12.368 87.2959 12.548 86.5519 12.908C85.8319 13.268 85.4719 13.796 85.4719 14.492C85.4719 14.924 85.5799 15.32 85.7959 15.68C86.0359 16.016 86.4919 16.328 87.1639 16.616C87.8359 16.88 88.8199 17.144 90.1159 17.408C91.9159 17.768 93.3319 18.224 94.3639 18.776C95.4199 19.328 96.1759 19.976 96.6319 20.72C97.0879 21.44 97.3159 22.28 97.3159 23.24C97.3159 24.344 97.0159 25.34 96.4159 26.228C95.8399 27.116 94.9759 27.824 93.8239 28.352C92.6959 28.88 91.2799 29.144 89.5759 29.144ZM114.702 29C114.174 29 113.73 28.82 113.37 28.46C113.034 28.1 112.866 27.656 112.866 27.128V2.756C112.866 2.228 113.046 1.784 113.406 1.424C113.766 1.064 114.198 0.883999 114.702 0.883999C115.23 0.883999 115.674 1.064 116.034 1.424C116.394 1.784 116.574 2.228 116.574 2.756V25.256H129.606C130.134 25.256 130.578 25.436 130.938 25.796C131.298 26.156 131.478 26.6 131.478 27.128C131.478 27.656 131.298 28.1 130.938 28.46C130.578 28.82 130.134 29 129.606 29H114.702ZM137.799 29C137.271 29 136.827 28.832 136.467 28.496C136.131 28.136 135.963 27.692 135.963 27.164V11.144C135.963 10.592 136.131 10.148 136.467 9.812C136.827 9.476 137.271 9.308 137.799 9.308C138.351 9.308 138.795 9.476 139.131 9.812C139.467 10.148 139.635 10.592 139.635 11.144V27.164C139.635 27.692 139.467 28.136 139.131 28.496C138.795 28.832 138.351 29 137.799 29ZM137.799 6.104C137.151 6.104 136.587 5.876 136.107 5.42C135.651 4.94 135.423 4.376 135.423 3.728C135.423 3.08 135.651 2.528 136.107 2.072C136.587 1.592 137.151 1.352 137.799 1.352C138.447 1.352 138.999 1.592 139.455 2.072C139.935 2.528 140.175 3.08 140.175 3.728C140.175 4.376 139.935 4.94 139.455 5.42C138.999 5.876 138.447 6.104 137.799 6.104ZM148.591 29C148.135 29 147.727 28.832 147.367 28.496C147.007 28.16 146.827 27.716 146.827 27.164V9.416C146.827 7.688 147.163 6.188 147.835 4.916C148.531 3.644 149.491 2.66 150.715 1.964C151.939 1.244 153.355 0.883999 154.963 0.883999C155.491 0.883999 155.923 1.04 156.259 1.352C156.619 1.664 156.799 2.06 156.799 2.54C156.799 2.996 156.619 3.392 156.259 3.728C155.923 4.04 155.491 4.196 154.963 4.196C154.075 4.196 153.295 4.4 152.623 4.808C151.951 5.216 151.423 5.78 151.039 6.5C150.679 7.22 150.499 8.072 150.499 9.056V27.164C150.499 27.716 150.331 28.16 149.995 28.496C149.659 28.832 149.191 29 148.591 29ZM145.279 13.124C144.775 13.124 144.367 12.98 144.055 12.692C143.743 12.404 143.587 12.044 143.587 11.612C143.587 11.132 143.743 10.748 144.055 10.46C144.367 10.172 144.775 10.028 145.279 10.028H154.171C154.675 10.028 155.083 10.172 155.395 10.46C155.707 10.748 155.863 11.132 155.863 11.612C155.863 12.044 155.707 12.404 155.395 12.692C155.083 12.98 154.675 13.124 154.171 13.124H145.279ZM168.234 29.144C166.242 29.144 164.466 28.724 162.906 27.884C161.37 27.02 160.158 25.844 159.27 24.356C158.406 22.844 157.974 21.116 157.974 19.172C157.974 17.204 158.382 15.476 159.198 13.988C160.038 12.476 161.19 11.3 162.654 10.46C164.118 9.596 165.798 9.164 167.694 9.164C169.566 9.164 171.174 9.584 172.518 10.424C173.862 11.24 174.882 12.38 175.578 13.844C176.298 15.284 176.658 16.952 176.658 18.848C176.658 19.304 176.502 19.688 176.19 20C175.878 20.288 175.482 20.432 175.002 20.432H160.494V17.552H174.894L173.418 18.56C173.394 17.36 173.154 16.292 172.698 15.356C172.242 14.396 171.594 13.64 170.754 13.088C169.914 12.536 168.894 12.26 167.694 12.26C166.326 12.26 165.15 12.56 164.166 13.16C163.206 13.76 162.474 14.588 161.97 15.644C161.466 16.676 161.214 17.852 161.214 19.172C161.214 20.492 161.514 21.668 162.114 22.7C162.714 23.732 163.542 24.548 164.598 25.148C165.654 25.748 166.866 26.048 168.234 26.048C168.978 26.048 169.734 25.916 170.502 25.652C171.294 25.364 171.93 25.04 172.41 24.68C172.77 24.416 173.154 24.284 173.562 24.284C173.994 24.26 174.366 24.38 174.678 24.644C175.086 25.004 175.302 25.4 175.326 25.832C175.35 26.264 175.158 26.636 174.75 26.948C173.934 27.596 172.914 28.124 171.69 28.532C170.49 28.94 169.338 29.144 168.234 29.144Z" fill="#00200B"/>
</svg>
